<svg width="190" height="270" viewBox="0 0 190 270" fill="none" xmlns="http://www.w3.org/2000/svg">
<mask id="path-1-inside-1_31_237" fill="white">
<path d="M50 5C50 2.23857 52.2386 0 55 0H185C187.761 0 190 2.23858 190 5V140H50V5Z"/>
</mask>
<path d="M50 5C50 2.23857 52.2386 0 55 0H185C187.761 0 190 2.23858 190 5V140H50V5Z" fill="white"/>
<path d="M49 5C49 1.68629 51.6863 -1 55 -1H185C188.314 -1 191 1.68629 191 5H189C189 2.79086 187.209 1 185 1H55C52.7909 1 51 2.79086 51 5H49ZM190 140H50H190ZM49 140V5C49 1.68629 51.6863 -1 55 -1V1C52.7909 1 51 2.79086 51 5V140H49ZM185 -1C188.314 -1 191 1.68629 191 5V140H189V5C189 2.79086 187.209 1 185 1V-1Z" fill="black" mask="url(#path-1-inside-1_31_237)"/>
<path d="M0.5 145C0.5 142.515 2.51472 140.5 5 140.5H189.5V265C189.5 267.485 187.485 269.5 185 269.5H5C2.51472 269.5 0.5 267.485 0.5 265V145Z" fill="white" stroke="black"/>
</svg>
