<svg width="190" height="270" viewBox="0 0 190 270" fill="none" xmlns="http://www.w3.org/2000/svg">
<mask id="path-1-inside-1_31_243" fill="white">
<path d="M140 5C140 2.23857 137.761 0 135 0H5C2.23857 0 0 2.23858 0 5V140H140V5Z"/>
</mask>
<path d="M140 5C140 2.23857 137.761 0 135 0H5C2.23857 0 0 2.23858 0 5V140H140V5Z" fill="white"/>
<path d="M141 5C141 1.68629 138.314 -1 135 -1H5C1.68629 -1 -1 1.68629 -1 5H1C1 2.79086 2.79086 1 5 1H135C137.209 1 139 2.79086 139 5H141ZM0 140H140H0ZM141 140V5C141 1.68629 138.314 -1 135 -1V1C137.209 1 139 2.79086 139 5V140H141ZM5 -1C1.68629 -1 -1 1.68629 -1 5V140H1V5C1 2.79086 2.79086 1 5 1V-1Z" fill="black" mask="url(#path-1-inside-1_31_243)"/>
<path d="M189.5 145C189.5 142.515 187.485 140.5 185 140.5H0.5V265C0.5 267.485 2.51471 269.5 5 269.5H185C187.485 269.5 189.5 267.485 189.5 265V145Z" fill="white" stroke="black"/>
</svg>
